<?xml version="1.0" encoding="UTF-8" standalone="no"?>
<svg
   width="308.7612359841165"
   height="304.915625"
   viewBox="0 0 106.00782394174519 104.68749999999999"
   class="css-1j8o68f"
   version="1.1"
   id="svg23"
   sodipodi:docname="ilogo.svg"
   inkscape:version="1.3 (0e150ed6c4, 2023-07-21)"
   xmlns:inkscape="http://www.inkscape.org/namespaces/inkscape"
   xmlns:sodipodi="http://sodipodi.sourceforge.net/DTD/sodipodi-0.dtd"
   xmlns="http://www.w3.org/2000/svg"
   xmlns:svg="http://www.w3.org/2000/svg">
  <sodipodi:namedview
     id="namedview25"
     pagecolor="#ffffff"
     bordercolor="#ffffff"
     borderopacity="0.25"
     inkscape:showpageshadow="2"
     inkscape:pageopacity="0.0"
     inkscape:pagecheckerboard="0"
     inkscape:deskcolor="#d1d1d1"
     inkscape:zoom="2.410503"
     inkscape:cx="154.32464"
     inkscape:cy="152.87266"
     inkscape:window-width="1920"
     inkscape:window-height="991"
     inkscape:window-x="-9"
     inkscape:window-y="-9"
     inkscape:window-maximized="1"
     inkscape:current-layer="svg23" />
  <defs
     id="SvgjsDefs2684">
    <rect
       x="133.58208"
       y="140.63455"
       width="84.629641"
       height="102.05339"
       id="rect3" />
    <rect
       x="133.16723"
       y="139.80485"
       width="1.6594047"
       height="32.773243"
       id="rect2" />
  </defs>
  <g
     id="SvgjsG2685"
     featurekey="rootContainer"
     transform="matrix(0.98205925,0,0,0.98205925,-0.05456052,-0.56972788)"
     fill="#ff4a3f">
    <g
       id="g17">
      <path
         d="m 19.8,15.3 h 0.5 l -0.4,-0.2 z m 0.5,0.1 z m 0.8,-0.7 c 0,0.1 0,0.1 0.1,0.1 l 0.4,-0.3 c -0.2,-0.1 -0.3,-0.1 -0.5,0.2 z m 0.4,-0.2 z m -4.1,2.3 z m -0.2,0.6 0.3,-0.2 C 17.6,17.1 17.6,17 17.6,17 h -0.2 l -0.2,0.4 c -0.1,-0.1 -0.1,0 0,0 z m 2.2,-2.9 h -0.1 l -0.2,0.2 h 0.3 z m -2.1,2.4 0.6,-0.5 C 18,16.3 18,16.2 18,16.1 H 17.7 L 16.5,17.2 16.3,17.6 17,17 Z m -1.1,0.8 z"
         id="path3" />
      <path
         d="m 9.7,25 v -0.2 a 1.7,1.7 0 0 1 0.7,-1.1 l 0.9,-0.6 0.5,-0.6 0.7,-0.7 0.4,-0.4 0.4,-0.3 a 1.9,1.9 0 0 0 0.8,-0.9 l 0.4,-0.5 a 5.9,5.9 0 0 0 1,-1.3 l 0.2,-0.3 0.3,-0.2 -0.2,-0.3 0.4,-0.5 c 0.8,-0.6 1.4,-1.4 2.2,-2 l 0.3,-0.3 a 1.4,1.4 0 0 1 0.5,-0.6 L 20,13.8 h 0.4 a 1.4,1.4 0 0 0 0.7,-0.6 V 13 a 3.5,3.5 0 0 1 1.3,-1.4 l 0.8,-0.5 0.2,-0.2 0.4,-0.4 1,-0.5 H 25 l -1.1,0.4 -1.4,1 c -0.6,0.5 -1.4,0.6 -1.8,1.4 H 21 c -0.7,0.2 -1.4,0.5 -1.7,1.2 -0.3,0.7 -0.8,0.6 -1.2,0.9 a 0.4,0.4 0 0 0 -0.3,0.4 C 17,15.2 16.7,15.8 16.3,16.2 V 17 a 3.9,3.9 0 0 0 -1.6,1.4 c -1.6,0.1 -1.6,2.1 -3,2.5 h -0.1 a 0.2,0.2 0 0 0 0,0.2 c -0.3,0 -0.5,0.2 -0.4,0.5 L 11,22.1 c -0.7,0.4 -0.6,1.1 -1,1.7 -0.8,0.5 -1.1,1.5 -1.7,2.2 l 0.3,0.5 0.2,-0.2 A 11.6,11.6 0 0 1 9.7,25 Z M 53.9,3.3 54.5,3.5 h 0.2 a 2.2,2.2 0 0 0 1.4,0.2 4.1,4.1 0 0 1 1.9,0.1 h 1.2 a 1.4,1.4 0 0 1 1.2,0.3 0.1,0.1 0 0 1 0,0.1 H 60 a 0.1,0.1 0 0 0 0,0.1 h 0.7 a 1.8,1.8 0 0 1 1.3,0 c 0.2,0 0.1,0.1 0.2,0.2 l 0.5,0.2 H 62.5 C 62.3,4.3 62,4.3 61.7,4.3 A 9.7,9.7 0 0 0 57.4,3.4 H 56.6 A 9.8,9.8 0 0 0 53,3 h 0.2 z m 7.3,3.1 z M 50.3,4.7 Z m 10.9,1.7 h 0.2 z M 19,14.7 Z m 32.1,-10 z m 17.6,2.2 a 0.9,0.9 0 0 0 1,0.2 h 0.6 A 3.1,3.1 0 0 0 68.5,6.4 L 67.8,6.2 68.3,6.5 Z M 65.3,5.6 c 0,0.1 0.1,0.2 0.2,0.3 h 0.2 L 66.2,5.6 A 4.2,4.2 0 0 0 64.5,5 l 0.7,0.4 z m 7.4,2.7 0.8,0.5 C 73.3,8.5 73.1,8.3 72.7,8.3 Z"
         id="path5" />
      <path
         d="m 99,76.1 0.6,-1.6 0.6,-1.5 c 0.2,-0.5 0.6,-1.8 0.8,-2.6 a 1.7,1.7 0 0 1 0.3,-0.7 h 0.1 v -1.1 c 0.5,-0.1 0.4,-0.6 0.5,-0.9 l 0.8,-4.7 a 12.7,12.7 0 0 0 0,-6.2 1.9,1.9 0 0 0 -0.5,-1.6 V 50.9 C 101.9,50 102.5,49 101.8,48.2 L 101,45 a 0.4,0.4 0 0 0 0,-0.2 l -0.2,-0.6 a 0.5,0.5 0 0 1 0,-0.4 h 0.1 c 0.3,0 0.3,-0.5 0.3,-0.9 a 3,3 0 0 0 -0.4,-1.1 l -0.3,-0.4 a 1.1,1.1 0 0 1 -0.2,-0.7 6.7,6.7 0 0 0 -0.2,-2 V 38.1 C 99.9,37.4 99.7,36.6 99.5,35.9 L 99.3,35.4 A 2.5,2.5 0 0 1 98.9,34.3 2.5,2.5 0 0 0 98.6,33.5 L 98,32.5 A 0.8,0.8 0 0 0 97.4,32.3 H 97.3 V 32 H 97.1 V 31.2 H 97 V 31 a 0.4,0.4 0 0 0 0,-0.1 v -0.2 c 0.1,-0.2 0.1,-0.3 -0.1,-0.5 A 1.8,1.8 0 0 1 96.5,29.6 L 96.3,29 a 2.9,2.9 0 0 0 -0.7,-1.2 2.2,2.2 0 0 1 -0.5,-0.7 l -0.7,-1.6 a 4.3,4.3 0 0 0 -0.6,-1 l -0.6,-0.8 a 2.4,2.4 0 0 1 -0.4,-0.8 l -0.2,-0.3 a 0.6,0.6 0 0 1 -0.1,-0.5 0.5,0.5 0 0 0 -0.2,-0.4 l -0.4,-0.3 v 0.2 c 0.1,0.2 0,0.3 -0.1,0.3 h -0.2 l 0.3,1 0.3,0.5 0.7,0.9 H 92.8 L 92.6,24.1 92.4,23.9 A 1.3,1.3 0 0 0 91.2,22.8 V 22.1 C 90.9,20.9 89.6,20.8 89,20 a 1.5,1.5 0 0 0 -1.1,-0.9 l -0.8,-0.9 a 11.3,11.3 0 0 0 -3.1,-3 l -0.8,-0.6 -0.4,-0.3 c -0.7,-0.7 -1,-1.8 -2.2,-1.8 L 79.8,12 78.9,11.3 A 2.2,2.2 0 0 0 77.1,10 5.1,5.1 0 0 0 74.8,8.8 L 75,9 l 0.5,0.4 1.3,0.7 a 8.5,8.5 0 0 1 2.1,1.6 6.8,6.8 0 0 0 1.5,1.1 l 0.6,0.5 c 0.1,0.1 0.2,0.2 0.1,0.3 H 81 l -0.9,-0.3 a 5.6,5.6 0 0 1 -2,-0.8 L 76.9,11.9 75.6,11.2 H 75.4 C 75.1,11.1 75,10.8 74.6,10.7 L 73.8,10.5 71.3,10 A 2.6,2.6 0 0 1 70.4,9.3 1.7,1.7 0 0 1 69.5,9 l -1,-0.4 A 18.1,18.1 0 0 1 65.7,7.8 L 65.1,7.6 64.1,7.3 H 63.6 L 63.4,7 V 6.9 H 61.8 L 61.2,6.4 60.8,6.6 60.4,6.8 H 60.2 L 59.3,6.3 C 58.7,6.9 58.2,6.1 57.7,6.2 l -1,-0.3 a 1.2,1.2 0 0 1 -1.2,0 H 54.3 A 0.6,0.6 0 0 1 53.8,5.3 l 0.3,-0.2 h 0.6 a 0.7,0.7 0 0 1 0.1,0.3 c 0,0.2 0.2,0.2 0.5,0.2 h 0.2 L 55.1,5 a 1.1,1.1 0 0 0 -1,-0.2 l -1,0.3 H 53 c 0.3,0.2 0.2,0.3 0.2,0.5 H 51.6 L 51.2,5.4 50.4,5 H 50.3 L 49.6,4.8 h -2.3 l 0.4,-0.2 0.8,-0.2 h 0.3 l 1.7,-0.3 1.1,-0.2 0.6,-0.2 h -1.1 a 8.4,8.4 0 0 0 -3.4,0 H 46.4 L 43,3.6 c -1.4,0.1 -2.8,0 -3.9,1.2 -2.5,-0.4 -4.7,0.7 -6.9,1.8 L 30,7.5 a 6.7,6.7 0 0 0 -3.7,1.8 h 0.3 l 0.5,-0.3 0.8,-0.5 1.3,-0.6 1,-0.2 a 6,6 0 0 1 2,-0.9 l 0.9,-0.3 h 0.2 c 0.1,0.2 0.5,0 0.7,0 h 0.2 c 0.1,0 0.1,0.1 0,0.1 l -0.6,0.4 1,-0.3 0.8,-0.2 -1.3,0.7 -1.3,0.4 a 1,1 0 0 0 -0.6,0.5 l -0.3,0.5 h 0.3 L 32.6,8.4 A 1.4,1.4 0 0 1 33.5,7.8 L 35,7.3 h 0.5 a 0.1118034,0.1118034 0 0 1 0.1,0.2 C 35.4,7.7 35,7.8 34.8,8 H 35 L 31.8,8.9 28,10.5 A 5.2,5.2 0 0 1 25.7,11.7 6.6,6.6 0 0 1 24,12.8 L 23.2,13 a 1.5,1.5 0 0 1 -1.3,0.9 l -0.3,0.5 a 3.7,3.7 0 0 1 -1.2,1.1 h -0.1 v -0.1 l -0.2,0.2 -0.2,0.2 -1,0.2 H 18.4 L 18,16.5 c -0.1,0.1 -0.1,0.2 0,0.2 h 0.1 c -0.6,0.6 -1,1.4 -1.8,1.7 L 15,19.9 c -0.6,1.2 -1.8,1.6 -2.6,2.6 -0.8,1 -1.4,3.9 -3.9,4.3 L 8.3,26.5 8.1,27 a 2.7,2.7 0 0 1 -0.4,0.8 16.9,16.9 0 0 0 -1.2,2.1 0.8,0.8 0 0 0 -0.1,0.5 1.4,1.4 0 0 1 -0.2,0.8 l -0.5,1.1 h 0.2 c 0.3,0 0.3,0.3 0.4,0.6 l 0.8,-1.1 a 2.2,2.2 0 0 1 0.6,-0.7 2,2 0 0 0 0.9,-0.9 l 0.3,-0.3 0.4,-0.4 0.6,-1.1 h 0.2 c 0.1,0.1 0.1,0.1 0.2,0 L 10.5,28 H 11 v 0.8 l 0.5,-0.5 a 0.5,0.5 0 0 0 0,-0.5 0.4,0.4 0 0 1 0.1,-0.3 1.5,1.5 0 0 0 0.3,-0.5 1.3,1.3 0 0 1 0.8,-0.9 l 0.3,-0.2 0.3,-0.3 a 2.4,2.4 0 0 0 0.8,-1 l -0.2,-0.3 c 0,-0.1 0.1,-0.3 0.2,-0.4 h 0.5 l 0.6,-0.8 0.6,-0.3 H 16 A 48.8,48.8 0 0 0 10.5,30 h -0.1 0.1 A 48.4,48.4 0 0 0 5.2,41.2 H 4.7 L 4.2,40.8 C 4,40.6 4.1,40.1 3.8,39.9 H 3.9 C 4.2,39.4 3.8,38.7 4.2,38.2 4.6,37.7 4.3,36.8 3.3,37 c -1,0.2 -1.5,0.5 -1.3,1.5 0.2,1 -1,1.8 -1.1,2.9 -0.1,1.1 -0.5,0.5 -0.3,0.9 v 3.9 C 0.7,47 0.1,48 1.4,48.3 l 1.3,0.9 c 0.1,0.5 -0.5,1.6 0.9,1.3 a 49.2,49.2 0 0 0 -0.3,5 c 0,1.1 0.1,2.2 0.1,3.3 V 58.4 C 3.3,58 3.3,57.6 3.2,57.1 L 2.9,57.4 V 57.2 H 2.4 C 2.4,57.7 2.3,58 2,58.1 a 0.9,0.9 0 0 0 -0.1,0.5 c 0,0.1 0.1,0.3 0.2,0.2 0.1,-0.1 0.4,0.2 0.7,0.4 0.3,0.2 -0.2,0.3 -0.4,0.2 -0.2,-0.1 -0.2,0.1 -0.2,0.3 V 60 l 0.5,1.5 c 0,0.3 -0.1,0.6 -0.1,0.9 a 1.7,1.7 0 0 0 0.2,0.8 H 2.5 V 62.9 L 1.8,62.7 V 62.1 A 1.5,1.5 0 0 0 1.8,61.6 14.6,14.6 0 0 1 1.5,59.8 16.6,16.6 0 0 1 1.3,56.3 0.9,0.9 0 0 1 1.4,55.8 V 56 a 2.9,2.9 0 0 1 0.1,0.5 0.8,0.8 0 0 0 0.1,0.4 c 0.1,0.2 0.2,0.4 0.4,0.4 0.2,0 0.1,-0.1 0.1,-0.2 A 2.1,2.1 0 0 0 2,56.6 4.2,4.2 0 0 1 1.7,55.3 1.5,1.5 0 0 0 1.4,54.6 1.6,1.6 0 0 1 1.2,53.7 V 52.9 C 1.2,52.6 1.3,52.3 1.3,52 A 0.5,0.5 0 0 0 1.2,51.6 H 1.1 C 0.3,52 0.4,51.8 0.1,53.2 V 55 c 0,0.7 -0.1,1.4 0,2.1 a 10.8,10.8 0 0 0 0.2,2.3 1.8,1.8 0 0 1 0,0.5 3.1,3.1 0 0 0 0.1,0.9 5.9,5.9 0 0 1 0.1,1.3 3.9,3.9 0 0 0 0.2,1.7 1.2,1.2 0 0 1 0,0.4 2.1,2.1 0 0 0 0.1,0.8 4.9,4.9 0 0 1 0.2,0.9 14,14 0 0 0 0.5,2.2 5,5 0 0 1 0.2,1 1.7,1.7 0 0 0 0.3,0.7 2.9,2.9 0 0 1 0.5,1.2 8.5,8.5 0 0 0 0.3,1 l 0.4,1.4 a 5.4,5.4 0 0 0 0.6,1.5 8.5,8.5 0 0 1 0.8,2.1 l 0.2,0.5 a 2.1,2.1 0 0 1 0.5,1 2.1,2.1 0 0 0 0.4,0.8 1,1 0 0 1 0.2,0.5 c 0.1,0.3 0.2,0.4 0.4,0.3 H 6.4 V 81 l 0.5,1 0.5,1 1.1,1.2 0.4,0.4 c 0.3,0.3 0.7,0.5 0.9,1 l 0.4,0.3 a 0.7,0.7 0 0 1 0.3,0.5 l 0.2,0.7 a 3.3,3.3 0 0 0 0.6,0.9 l 0.4,0.2 H 12 a 0.2,0.2 0 0 1 0.1,0.3 2.5,2.5 0 0 0 0,0.5 0.9,0.9 0 0 0 0.4,0.5 h 0.2 c 0.4,-0.1 0.8,0.2 1.2,0.7 H 14 c 0,-0.1 0.1,-0.1 0,-0.2 v -0.2 c 0,-0.1 0.1,-0.2 0.2,-0.1 a 0.7,0.7 0 0 1 0.3,0.6 v 0.2 a 4.3,4.3 0 0 0 0.4,1.2 c 0.5,0.3 0.5,0.3 0.5,0.1 0,-0.2 0,-0.2 0.2,-0.2 H 16 l 0.2,0.3 0.8,0.5 c 0.7,0.8 1.8,0.7 2.6,1.2 l 1.7,1.7 h 0.2 a 2.9,2.9 0 0 0 1.6,1.6 1.3,1.3 0 0 0 1,0.6 c 0,0.5 0.6,0.6 1.1,0.7 a 1.2,1.2 0 0 0 0.8,0.4 h 0.2 a 1.7,1.7 0 0 0 1.5,0.5 l 0.9,0.8 2.4,0.9 v 0.2 c 0.5,1.1 1.7,0.7 2.5,1 l 1.1,0.4 H 35 c 1.2,0.3 2.4,0.9 3.7,0.5 a 0.7,0.7 0 0 0 0,0.4 c 1.1,0.7 2.4,0 3.6,0.4 a 2.9,2.9 0 0 0 1.7,0.1 h 0.1 l 0.8,0.2 h 0.3 l 0.9,0.2 h 0.3 a 0.5,0.5 0 0 1 0.5,0 7.9,7.9 0 0 0 1.5,0.4 H 49 a 0.7,0.7 0 0 1 0.7,0 h 3.9 a 5,5 0 0 0 1.6,-0.1 h 1 l 0.5,-0.2 H 60 l 0.6,-0.2 0.5,-0.3 h 2.2 v 0.6 H 62 l -1.2,0.2 c -0.4,0.1 -0.7,0 -1,0.1 a 2.4,2.4 0 0 1 -1,0.2 l -1.3,0.3 h -0.4 a 3.1,3.1 0 0 0 -1.5,0.1 h -1.8 a 1.1,1.1 0 0 1 -0.9,0 h -4.5 a 1.3,1.3 0 0 0 -1.1,0.3 H 47 l -0.3,-0.2 v -0.3 h -1.2 a 4.1,4.1 0 0 0 -1.3,-0.3 H 41.7 L 41,104.6 40.5,104.4 38.4,104 h -0.5 l -0.5,-0.2 -2.1,-0.7 -1.4,-0.4 h -2.2 c -0.1,0 -0.1,0.1 -0.1,0.2 h 0.2 c 1.3,0.5 2.6,0.9 3.9,1.5 H 36 l 0.9,0.2 1.4,0.4 h 1.3 l 0.6,0.2 0.7,0.3 1.7,0.3 1.1,0.2 1.1,0.2 h 0.8 l 0.8,0.2 h 3.1 l 1,0.2 h 2.3 l 1,-0.2 H 56 c 0.4,0 0.6,-0.1 0.7,-0.3 h 1 a 1,1 0 0 0 0.8,-0.3 c -0.1,0.1 0,0.1 0.1,0.2 H 59 v -0.2 c 0,-0.1 0,-0.1 0.2,-0.2 0.2,-0.1 0.6,-0.1 0.7,0.1 h 0.4 l 0.3,-0.2 c 0.2,0 0.2,0 0.2,0.1 h 0.7 l 0.5,-0.2 0.8,-0.4 c 0.1,0.3 0.4,0.4 1.3,0.2 l 1.3,-0.4 h 1.2 c 0.9,-0.1 2,0 2.7,-0.7 h 0.2 l 0.4,-0.3 1.1,-0.3 a 6.1,6.1 0 0 0 2,-0.8 l 0.4,-0.2 h 0.1 l 0.9,-0.6 0.4,-0.2 0.5,-0.2 h 0.4 c 0.4,-0.1 0.4,-0.1 0.5,-0.4 0.1,-0.3 0,-0.1 -0.2,-0.1 h -0.1 l 0.4,-0.5 h 0.2 c 0.3,-0.1 0.5,-0.2 0.7,-0.1 h 0.2 a 1.3,1.3 0 0 0 0.9,-0.9 c 0.3,-0.4 1.1,-0.2 1.3,-0.8 l 4.3,-3.1 c 1.1,-0.1 1.4,-1.1 2.2,-1.7 0.8,-0.6 2.3,-1.1 3,-2.2 L 90,91.3 h 0.1 a 1,1 0 0 0 1.2,-0.7 V 91 c 0.8,-0.4 1.8,0.3 2.6,-0.5 0.8,-0.8 0,-2.7 1,-3.8 l 0.7,-0.5 A 12.1,12.1 0 0 0 97.1,82 l 0.2,-0.2 c 0,-0.3 0,-0.7 0.4,-0.9 a 0.9,0.9 0 0 0 0.2,-1.2 h -0.2 a 0.3,0.3 0 0 0 0,-0.3 c 0.7,0 0.8,-0.7 1.2,-1 V 77 a 0.5,0.5 0 0 1 0,-0.2 3.8,3.8 0 0 0 0.1,-0.7 z M 5.9,32.2 Z"
         id="path7" />
      <path
         d="m 26.4,9.3 -0.3,0.2 -0.4,0.3 0.5,-0.2 z m 6.1,-2 h 0.1 l 0.3,-0.2 h -0.4 z m -2.6,1 -0.1,0.1 h 0.1 z m -1.5,1.4 z m 1.3,-0.2 z m -6.3,3.1 z M 9.2,26.2 8.8,26.6 H 9 a 0.4,0.4 0 0 0 0.2,-0.4 z m 3,-3.5 a 2.1,2.1 0 0 0 0.3,-0.6 1.5,1.5 0 0 0 -0.5,0.5 c -0.1,0.1 -0.1,0.2 0,0.2 z M 11,24.2 V 24 c -0.2,0 -0.5,0.3 -0.8,0.3 v 0.2 c 0.3,0.3 0.4,0.2 0.8,-0.3 z m 3,66.2 z M 73.9,9.2 H 74 L 73.5,8.9 Z M 71.4,7.8 c 0.5,-0.1 0.8,0.4 1.2,0.5 h 0.1 L 72.4,8.1 71.4,7.6 70.3,7.1 70.6,7.3 Z M 52.8,3.1 Z m 11.7,2 H 64.4 L 63.2,4.9 h 0.5 z m 2,0.7 1.3,0.4 A 3.3,3.3 0 0 0 66.5,5.8 Z m -9,0 a 1,1 0 0 0 0.2,-0.5 h -0.5 l -0.3,0.3 0.4,0.3 z m 9,1.6 z M 49.9,4.2 Z m 2.9,0.7 z M 48.5,4 Z m 13.8,2.1 a 0.5,0.5 0 0 0 0,0.1 z m 44.8,52.3 h -0.3 V 58 h 0.3 c 0.1,0 0.2,-0.3 0.1,-0.4 -0.1,-0.1 -0.1,-0.7 -0.3,-0.8 a 0.3,0.3 0 0 1 -0.2,-0.3 l 0.2,-0.4 a 0.4,0.4 0 0 0 0,-0.2 h -0.2 l -0.2,-0.3 c -0.1,0.3 -0.2,0.6 -0.4,0.7 a 0.5,0.5 0 0 0 0,0.2 c 0,0.1 0,0.2 -0.1,0.2 h -0.1 a 1.1,1.1 0 0 1 -0.1,0.3 2.3,2.3 0 0 0 -0.4,0.9 0.4,0.4 0 0 0 0.1,0.4 h 0.1 a 1.7,1.7 0 0 0 -0.1,0.8 v 0.4 a 1.8,1.8 0 0 1 -0.1,0.5 h -0.1 l -0.4,0.7 v 0.6 a 1.5,1.5 0 0 1 -0.3,1.1 h -0.2 l -0.2,-0.2 a 0.9,0.9 0 0 1 -0.1,-0.8 6.5,6.5 0 0 0 0.1,-1.7 c 0,-0.1 -0.1,-0.2 -0.1,-0.2 a 0.5,0.5 0 0 0 -0.1,0.3 v 0.6 c 0,0.2 -0.1,0.6 -0.3,0.7 -0.2,0.1 -0.1,0.2 -0.1,0.3 l -0.2,0.6 0.3,0.5 c -0.2,0.2 -0.4,0.1 -0.5,-0.1 v 1 h 0.3 v 0.4 a 4.2,4.2 0 0 0 -0.3,1.4 3.3,3.3 0 0 0 0,0.4 4,4 0 0 1 -0.2,1.3 2,2 0 0 0 0,0.6 l -0.3,0.7 a 3.2,3.2 0 0 1 -0.3,0.7 l -0.3,0.6 -0.9,2.7 c 0.3,0.9 -0.4,1.5 -0.8,2.1 a 2.7,2.7 0 0 1 -0.8,2.3 V 77 c 0,0.1 0.1,0.2 0.3,0.1 l 0.4,-0.3 0.2,-0.4 h 0.2 c 0.1,0.1 0.2,0.1 0.4,-0.1 h 0.2 a 0.5,0.5 0 0 1 0.1,0.6 2.9,2.9 0 0 0 -0.1,0.8 c 0,0.1 0,0.2 0.1,0.2 h 0.2 c 0.1,0.1 0.2,0 0.3,-0.3 l 0.2,-0.5 h 0.3 c 0.4,-0.1 0.4,-0.1 0.6,-0.6 l 0.5,-0.9 0.3,-0.6 0.4,-1 a 1.6,1.6 0 0 1 0.3,-1 0.6,0.6 0 0 0 0.1,-0.6 c 0,-0.2 0,-0.3 0.2,-0.6 l 0.3,-0.4 0.5,-1 a 4.7,4.7 0 0 1 0.2,-0.9 3,3 0 0 0 0.3,-1.3 3.8,3.8 0 0 1 0.3,-0.9 v -0.5 c -0.1,-0.2 -0.1,-0.2 0,-0.6 0.1,-0.4 0.1,-0.2 0.2,-0.2 a 0.4,0.4 0 0 1 0.1,0.3 l 0.2,-0.5 a 2.3,2.3 0 0 0 0.2,-0.9 v -0.3 c 0,-0.1 0,-0.3 -0.1,-0.3 v 0.4 c -0.2,0 -0.3,0.2 -0.5,0.3 a 6.4,6.4 0 0 0 0.1,-0.8 L 107,64 a 0.7,0.7 0 0 0 0.2,-0.6 1.4,1.4 0 0 1 0,-0.3 4.8,4.8 0 0 0 0.2,-1.4 v -0.2 l 0.3,-1 h 0.1 a 0.3,0.3 0 0 0 0.1,-0.3 h -0.1 a 0.9,0.9 0 0 1 0.2,-0.8 1.5,1.5 0 0 0 -0.9,-1 z m -1.2,7.8 z m -0.2,-9.9 z m 0,0 z M 9.1,30.8 a 0.3,0.3 0 0 0 0,-0.2 L 8.9,30.4 8.7,30.6 8.4,31.2 c 0,0.3 -0.3,0.6 -0.3,0.9 v 0.2 h 0.1 z m 96.3,24.8 h 0.1 a 1.7,1.7 0 0 0 0.2,-1.2 0.5,0.5 0 0 1 0.2,-0.5 h 0.1 v -0.2 l -0.2,-0.2 h -0.1 c -0.1,0.1 -0.2,0.3 -0.3,0.3 -0.1,0 -0.1,0.1 -0.1,0.3 v 0.3 a 2.2,2.2 0 0 0 0.1,1.2 z M 13.2,90.1 c -0.1,0 0,0.2 0,0.3 l 0.8,0.8 h 0.1 c -0.2,-0.3 -0.3,-0.6 -0.2,-0.7 a 0.9,0.9 0 0 1 -0.5,-0.2 z m 0.8,0.3 z m 92.3,-35.7 h 0.1 a 2,2 0 0 0 0,-0.6 c -0.3,0.1 -0.3,0.1 -0.3,0.6 0,0.5 0.1,0.1 0.2,0 z"
         id="path9" />
      <path
         d="m 106.7,62 a 0.6,0.6 0 0 0 0.1,-0.5 c 0,-0.1 -0.1,-0.2 -0.1,-0.1 h -0.2 v 0.2 c 0,0.4 0.1,0.5 0.2,0.4 z m 0.1,-8.2 h -0.1 v 0.6 a 1,1 0 0 0 0.1,-0.6 z M 17.1,92.6 h -0.2 v 0.2 l 0.2,0.2 h 0.2 v -0.2 z m 86.6,-33.3 c 0,-0.1 0,-0.1 -0.1,-0.1 z M 9.9,86.5 10.4,87 10,86.4 Z"
         id="path11" />
      <circle
         cx="10.5"
         cy="87.099998"
         transform="rotate(-24.8,10.4,87.159)"
         id="circle13"
         r="0" />
      <path
         d="M 9.7,30.1 H 9.6 v 0.2 -0.2 z M 92.9,23.5 92.7,23.2 H 92.6 Z M 78.2,100.6 Z M 5.9,32.2 Z m -0.1,0.2 a 0.3,0.3 0 0 0 0.1,-0.2 v 0.2 z M 7.7,27.5 Z M 61.5,2.4 Z m 42.8,58.2 v 0.1 z M 16.4,92.5 h -0.1 c 0.1,0.1 0.2,0 0.1,-0.1 z m 0.2,0.7 h 0.1 L 16.6,93.1 Z M 90.5,21.9 Z m 15.2,34.4 z M 14.6,91.7 Z m 92.1,-37 z m -0.8,11.4 z M 34.6,0 Z"
         id="path15" />
    </g>
  </g>
  <text
     xml:space="preserve"
     style="font-size:4.11999px;fill:#ffffff;fill-opacity:0;stroke:#ffffff;stroke-width:0.343333;stroke-opacity:0"
     x="45.578232"
     y="47.287415"
     id="text1"><tspan
       sodipodi:role="line"
       id="tspan1"
       style="stroke-width:0.343333"
       x="45.578232"
       y="47.287415">I</tspan></text>
  <text
     xml:space="preserve"
     transform="scale(0.34333269)"
     id="text2"
     style="fill:#ffffff;stroke:#ffffff;stroke-opacity:0;fill-opacity:0;white-space:pre;shape-inside:url(#rect2)" />
  <text
     xml:space="preserve"
     transform="scale(0.34333269)"
     id="text3"
     style="white-space:pre;shape-inside:url(#rect3);fill:#ffffff;fill-opacity:0;stroke:#ffffff;stroke-opacity:0" />
  <text
     xml:space="preserve"
     style="font-size:4.11999px;white-space:pre;inline-size:4.74369;fill:#f7f7f7;fill-opacity:0;stroke:#ffffff;stroke-width:0.343333;stroke-opacity:0"
     x="55.975765"
     y="65.233849"
     id="text4" />
  <path
     style="fill:#f7f7f7;fill-opacity:0;stroke:#ffffff;stroke-width:0.343333;stroke-opacity:0"
     id="path4"
     d="m 37.829254,33.913964 c -0.676338,-0.02735 -1.331575,-0.239737 -1.993592,-0.373218 -0.46228,-0.03443 -0.917783,-0.110847 -1.37559,-0.179177 0,0 4.054491,3.034192 4.054491,3.034192 v 0 c 0.448283,0.06054 0.900545,0.09624 1.343351,0.192188 0.694037,0.141772 1.382213,0.312896 2.087003,0.395134 z" />
  <path
     style="fill:#f7f7f7;fill-opacity:0.99290782;stroke:#ffffff;stroke-width:0.343333;stroke-opacity:0"
     id="path12"
     d="m 49.851463,37.422638 c 1.018696,-0.246248 2.140638,-0.378884 3.238963,-0.493777 0.317762,-0.03323 0.633958,-0.07533 0.956851,-0.08998 0.281742,-0.01277 0.565527,0.0054 0.848301,0.0081 2.915234,1.371542 -0.540353,-0.30007 -6.888991,-1.872036 -0.323323,-0.08006 0.444081,0.295019 0.609596,0.460241 0.575973,0.574956 0.733875,1.244362 0.935472,1.872688 0.28914,1.402744 0.362955,2.822565 0.07085,4.227469 -0.06261,0.301093 -0.1669,0.599442 -0.250343,0.899161 -0.537989,1.543644 -1.255236,3.079794 -2.161158,4.577013 -0.679798,1.123501 -1.211015,1.803423 -2.009597,2.895259 -1.732328,2.174865 -3.33604,4.375514 -4.729066,6.615489 -0.848643,1.444957 -1.787561,2.884248 -2.393146,4.363315 -0.473336,1.959225 -0.483888,3.940334 -0.457977,5.911956 -0.006,0.384495 -0.0131,0.768986 -0.01748,1.153488 -0.01228,1.023135 0.03245,2.036584 0.224649,3.055764 0.136641,0.724494 0.21994,0.92946 0.434821,1.620341 0.196819,0.567083 0.381124,1.164832 1.020333,1.653885 0.620272,0.474568 1.536055,0.819632 2.393818,1.165834 3.188049,0.537684 6.674968,2.61314 10.607886,2.973735 0.861315,0.07897 1.75135,0.08951 2.622453,0.115484 1.582708,0.01057 3.241717,0.0031 4.677313,-0.395938 0.320153,-0.08901 0.606468,-0.207645 0.909699,-0.311468 1.103685,-0.419158 0.569905,-0.208984 1.602991,-0.629391 0,0 -8.118923,-2.656506 -8.118923,-2.656506 v 0 c -0.958382,0.400652 -0.457279,0.205955 -1.506222,0.582045 -0.277829,0.07561 -0.544039,0.164113 -0.833489,0.226813 -1.410787,0.305586 -2.998597,0.251148 -4.486318,0.209896 -0.848162,-0.03581 -1.680212,-0.07679 -2.499853,-0.205285 -3.003214,-0.470809 -7.984479,-2.736444 5.920148,1.920723 -1.085328,-0.376581 -0.639438,-0.207761 -1.713414,-0.640625 -0.281576,-0.113488 -0.593721,-0.209398 -0.842085,-0.342234 -0.777467,-0.41582 -1.062243,-0.995685 -1.316293,-1.538604 -0.327222,-0.705768 -0.434067,-0.864281 -0.631726,-1.612863 -0.367192,-1.390683 -0.413588,-2.800644 -0.385896,-4.201778 0.105361,-1.913139 0.09151,-3.841632 0.719153,-5.733162 0.598908,-1.47815 1.427193,-2.927165 2.092666,-4.397381 1.289949,-2.258449 2.903576,-4.460691 4.393585,-6.684646 0.91193,-1.341112 1.041044,-1.554264 2.025676,-2.905236 0.33929,-0.465532 0.722085,-0.922625 1.037561,-1.392671 0.687774,-1.024745 1.113412,-2.091463 1.591651,-3.145508 0.09408,-0.310541 0.211856,-0.619386 0.282235,-0.931619 0.06949,-0.308327 0.09355,-0.618971 0.13706,-0.928581 0.156797,-1.115928 0.240857,-2.231745 0.0258,-3.348112 -0.13008,-0.718201 -0.284856,-1.310141 -0.705483,-2.001733 -0.120947,-0.198868 -0.08753,-0.466297 -0.413628,-0.587593 -7.440446,-2.767366 -5.59906,-2.514246 -9.786575,-2.955296 -1.822999,0.124184 -3.599065,0.384164 -5.380197,0.616404 z" />
  <path
     style="fill:#f7f7f7;fill-opacity:1;stroke:#ffffff;stroke-width:0.343332;stroke-opacity:0"
     id="path13"
     d="m 46.545565,21.768029 c -0.469792,0.427264 -0.739871,0.867898 -0.749993,1.474856 0.535251,1.989397 5.523378,3.126272 5.801058,3.255333 0.09263,0.04304 0.519326,-0.269899 0.550675,-0.303223 0.09464,-0.100603 0.153539,-0.224597 0.230306,-0.336897 0.266007,-0.638573 0.448366,-1.359337 0.287976,-2.042052 -0.03087,-0.131505 -0.08877,-0.256656 -0.133152,-0.384984 -0.06568,-0.110108 -0.121503,-0.225487 -0.197058,-0.330327 -0.06281,-0.08715 -0.33289,-0.389951 -0.452018,-0.451358 -1.883161,-0.970669 -3.767306,-1.941281 -5.685917,-2.853779 -0.193847,-0.09219 -0.460596,0.09705 -0.59419,0.164666 -0.55662,0.419841 -0.886788,0.978214 -1.042083,1.608554 -0.110617,0.548199 0.03275,1.03188 0.396974,1.470664 -1.03667,-0.67932 4.132173,3.768656 6.167931,2.792039 0.263305,-0.126319 0.459082,-0.335619 0.651736,-0.533734 0.05307,-0.07611 0.103204,-0.153975 0.159244,-0.228351 0.106689,-0.1416 0.173625,-0.191875 0.275519,-0.339182 0.157207,-0.227272 0.25087,-0.478438 0.351436,-0.728573 0.162844,-0.552085 0.287565,-1.122793 0.219383,-1.694542 -0.594143,-2.033536 -4.437699,-2.690308 -5.774809,-3.295266 -0.05759,-0.02606 -0.662142,0.434115 -0.676724,0.446811 -0.119971,0.104444 -0.223079,0.223564 -0.334618,0.335348 -0.619734,0.68647 -1.127454,1.356439 -1.332839,2.231075 -1.56e-4,0.111316 -0.01833,0.223799 -4.23e-4,0.33394 0.0174,0.10736 0.0044,0.252188 0.105119,0.31138 3.233031,1.897443 3.985946,3.050531 6.77887,3.164135 0.517969,-0.01477 1.051345,0.07721 1.568665,0.02871 0.283645,-0.0266 0.401619,-0.08406 0.659788,-0.173384 0.546775,-0.316134 0.761118,-0.79675 0.80383,-1.358772 -0.02278,-0.247407 -0.147146,-0.777349 -0.411863,-0.918899 -5.516144,-2.949627 -3.469522,-2.799523 -5.910776,-2.931588 -0.419287,0.003 -0.856362,-0.07362 -1.275194,-0.03084 -0.252348,0.02578 -0.382946,0.09002 -0.612434,0.174609 -0.531411,0.304259 -0.747461,0.769421 -0.848861,1.306325 -0.107047,0.524748 -0.0058,1.01915 0.193481,1.51213 0.06634,0.09855 0.123146,0.20286 0.199022,0.295654 0.09221,0.11278 0.377588,0.382772 0.515181,0.455578 0.271768,0.143805 4.016417,2.848789 6.241348,3.031606 0.330655,-0.006 0.655747,-0.02384 0.975726,-0.09897 0.0691,-0.01622 0.143036,-0.02063 0.20734,-0.04863 0.0779,-0.03392 0.141733,-0.08949 0.2126,-0.134227 0.468906,-0.283321 0.674994,-0.715611 0.807765,-1.191185 0.09611,-0.462512 0.104934,-0.933779 0.104983,-1.402759 0.01239,-0.407494 0.01456,-0.812964 -0.102289,-1.209105 -0.01935,-0.06528 -0.02803,-0.133906 -0.05797,-0.195856 -0.08858,-0.183378 -0.398994,-0.546374 -0.567906,-0.671945 -1.627374,-1.726594 -3.979868,-3.16505 -6.498794,-3.394125 -0.383455,-0.06334 -0.638746,0.13666 -0.895701,0.360983 0,0 5.351089,3.047086 5.351089,3.047086 v 0 c 0.222569,-0.08543 0.342795,-0.0071 0.574776,0.04082 0.134565,0.04439 0.512303,0.230942 0.388458,0.165968 -1.743032,-0.91449 -3.491997,-1.819858 -5.228236,-2.744791 -0.05757,-0.03066 0.130848,0.03075 0.189115,0.06033 0.126408,0.06418 0.189763,0.157841 0.276613,0.257331 0.32735,0.411595 -0.09195,-0.06417 0.27038,0.210871 0.04604,0.03494 0.06491,0.09193 0.104909,0.132469 0.03771,0.03819 0.09013,0.06327 0.126759,0.102311 0.19439,0.207116 -0.01075,0.08676 0.228241,0.198396 0.042,0.09267 0.103908,0.178109 0.137492,0.273516 0.08903,0.252895 0.08477,0.520911 0.08368,0.782868 -0.0026,0.430636 0.0089,0.863422 -0.04989,1.291672 -0.06557,0.331695 -0.164297,0.610868 -0.539137,0.746619 -0.373723,0.049 -0.755232,0.08112 -1.122041,-0.02703 -1.88826,-0.707444 -4.88877,-2.572232 4.621635,2.472332 0.09769,0.05182 -0.208635,-0.08118 -0.306603,-0.132567 -0.0957,-0.0502 -0.183488,-0.111894 -0.272532,-0.171235 -0.08019,-0.05344 -0.156626,-0.111303 -0.234942,-0.166945 -0.155901,-0.194775 -0.334116,-0.525775 -0.3686,-0.768426 -0.0051,-0.03575 0.01574,-0.382859 0.01811,-0.426148 0.03708,-0.322422 0.07754,-0.650576 0.471781,-0.759264 0.555726,-0.08706 1.140966,-0.02027 1.682477,0.109402 2.043249,0.939951 -0.18831,-0.08158 -4.963726,-2.630211 -0.06313,-0.03368 0.138916,0.04358 0.204591,0.07302 0.09961,0.04465 0.277812,0.147634 0.347627,0.230602 0.04174,0.0496 0.05987,0.112177 0.08981,0.168275 0.105527,0.309449 -0.01013,0.600088 -0.361923,0.711689 -0.667427,0.116222 -1.363733,0.02913 -2.035121,-0.01572 -0.274063,-0.048 -0.480716,-0.06922 -0.736763,-0.167757 -0.104032,-0.04004 -0.394607,-0.199371 -0.298008,-0.146316 1.680606,0.923051 3.373907,1.827294 5.050352,2.756477 0.06934,0.03845 -0.163495,-0.03604 -0.226319,-0.08272 -0.05716,-0.04245 -0.07695,-0.11409 -0.115436,-0.171133 0.0042,-0.08828 -0.0026,-0.177586 0.01273,-0.264852 0.113483,-0.642167 0.614012,-1.193213 1.080143,-1.658236 0.124621,-0.09001 0.34672,-0.300535 0.550162,-0.286969 0.05466,0.0037 0.16645,0.126949 0.11892,0.102363 -1.756902,-0.908718 -3.516057,-1.8145 -5.251033,-2.756836 -0.05507,-0.0299 0.130603,-0.006 0.192574,0.0094 0.05314,0.01322 0.09564,0.04945 0.143469,0.07418 0.03559,0.04421 0.08151,0.08297 0.106713,0.132632 0.163573,0.322354 -0.04467,0.903282 -0.113409,1.240323 -0.154201,0.401092 -0.379259,0.751178 -0.673858,1.083227 -0.125882,0.109531 -0.230306,0.220207 -0.421667,0.208296 -0.05564,-0.0035 -0.112458,-0.01286 -0.162952,-0.03422 -0.06102,-0.02582 -0.223748,-0.135299 -0.165481,-0.104765 1.734734,0.909225 3.463666,1.827422 5.195493,2.741132 -0.506868,-0.15445 -0.717062,-0.438343 -0.699505,-0.920164 0.03389,-0.412732 0.222611,-0.898013 0.689476,-1.050192 1.887875,0.481554 6.092679,3.244544 -4.799294,-2.570771 -0.08828,-0.04714 0.199938,0.04745 0.29146,0.08927 0.227541,0.103982 0.358029,0.237264 0.541274,0.392297 0.06473,0.09043 0.144033,0.173606 0.194182,0.271264 0.267822,0.521534 0.132799,1.114683 -0.09409,1.623647 -0.07433,0.07093 -0.08939,0.129729 -0.214391,0.08398 -0.04844,-0.01773 -0.169921,-0.109337 -0.124592,-0.08587 3.823976,1.979652 7.295907,3.10267 4.91461,2.697072 -0.03995,-0.0218 -0.09557,-0.02945 -0.119909,-0.06538 -0.177537,-0.262121 0.274257,-0.645083 0.488301,-0.75727 z" />
</svg>
